<svg width="31" height="43" viewBox="0 0 31 43" fill="none" xmlns="http://www.w3.org/2000/svg">
  <path
    d="M15.3558 42.6138C23.8366 42.6138 30.7117 35.676 30.7117 27.1179C30.7117 15.4959 15.3558 0 15.3558 0C15.3558 0 0 15.4959 0 27.1179C0 35.676 6.87504 42.6138 15.3558 42.6138Z"
    fill="#FF3355" />
  <path fill-rule="evenodd" clip-rule="evenodd"
    d="M6.53696 31.155C7.35655 30.5193 8.5318 30.6742 9.16195 31.501L9.41982 31.8394C12.4171 35.7722 18.2946 35.7722 21.2919 31.8394L21.5498 31.501C22.1799 30.6742 23.3552 30.5193 24.1748 31.155C24.9944 31.7907 25.1479 32.9763 24.5178 33.8032L24.2599 34.1415C19.764 40.0408 10.9477 40.0408 6.45181 34.1415L6.19393 33.8032C5.56378 32.9763 5.71736 31.7907 6.53696 31.155Z"
    fill="white" />
</svg>
