<svg width="80" height="80" viewBox="0 0 80 80" fill="none" xmlns="http://www.w3.org/2000/svg">
  <rect x="15.7334" y="15.7334" width="10.8308" height="10.8308" fill="#2F363D" />
  <rect x="15.7334" y="33.7849" width="2.70769" height="2.7077" fill="#2F363D" />
  <rect x="15.7334" y="36.4922" width="2.70769" height="2.7077" fill="#2F363D" />
  <rect x="18.4412" y="36.4922" width="2.70769" height="2.7077" fill="#2F363D" />
  <rect x="21.149" y="36.4922" width="2.70769" height="2.7077" fill="#2F363D" />
  <rect x="21.149" y="39.2" width="2.70769" height="2.7077" fill="#2F363D" />
  <rect x="18.4412" y="41.9078" width="2.70769" height="2.7077" fill="#2F363D" />
  <rect x="15.7334" y="44.6152" width="2.70769" height="2.7077" fill="#2F363D" />
  <rect x="21.149" y="44.6152" width="2.70769" height="2.7077" fill="#2F363D" />
  <rect x="26.5641" y="41.9078" width="2.70769" height="2.7077" fill="#2F363D" />
  <rect x="26.5641" y="39.2" width="2.70769" height="2.7077" fill="#2F363D" />
  <rect x="26.5641" y="36.4922" width="2.70769" height="2.7077" fill="#2F363D" />
  <rect x="26.5641" y="33.7849" width="2.70769" height="2.7077" fill="#2F363D" />
  <rect x="29.2725" y="33.7849" width="2.70769" height="2.7077" fill="#2F363D" />
  <rect x="29.2725" y="39.2" width="2.70769" height="2.7077" fill="#2F363D" />
  <rect x="26.5641" y="31.0771" width="2.70769" height="2.70769" fill="#2F363D" />
  <rect x="23.8568" y="31.0771" width="2.70769" height="2.70769" fill="#2F363D" />
  <rect x="21.149" y="31.0771" width="2.70769" height="2.70769" fill="#2F363D" />
  <rect x="30.1746" y="27.4667" width="2.70769" height="2.70769" fill="#2F363D" />
  <rect x="30.1746" y="24.7589" width="2.70769" height="2.70769" fill="#2F363D" />
  <rect x="30.1746" y="18.4412" width="2.70769" height="2.70769" fill="#2F363D" />
  <rect x="30.1746" y="15.7334" width="2.70769" height="2.70769" fill="#2F363D" />
  <rect x="19.3434" y="19.3438" width="3.61026" height="3.61026" fill="white" />
  <rect x="32.8824" y="15.7334" width="2.70768" height="2.70769" fill="#2F363D" />
  <rect x="35.5902" y="15.7334" width="2.70769" height="2.70769" fill="#2F363D" />
  <rect x="35.5902" y="18.4412" width="2.70769" height="2.70769" fill="#2F363D" />
  <rect x="35.5902" y="21.1484" width="2.70769" height="2.70769" fill="#2F363D" />
  <rect x="33.7844" y="49.1281" width="2.7077" height="2.7077" fill="#2F363D" />
  <rect x="33.7844" y="51.8359" width="2.7077" height="2.70769" fill="#2F363D" />
  <rect x="36.4922" y="51.8359" width="2.7077" height="2.70769" fill="#2F363D" />
  <rect x="39.2001" y="51.8359" width="2.7077" height="2.70769" fill="#2F363D" />
  <rect x="39.2001" y="54.5437" width="2.7077" height="2.70769" fill="#2F363D" />
  <rect x="36.4922" y="57.2516" width="2.7077" height="2.70769" fill="#2F363D" />
  <rect x="33.7844" y="59.9589" width="2.7077" height="2.70769" fill="#2F363D" />
  <rect x="39.2001" y="59.9589" width="2.7077" height="2.70769" fill="#2F363D" />
  <rect x="44.6156" y="57.2516" width="2.70769" height="2.70769" fill="#2F363D" />
  <rect x="44.6156" y="54.5437" width="2.70769" height="2.70769" fill="#2F363D" />
  <rect x="44.6156" y="51.8359" width="2.70769" height="2.70769" fill="#2F363D" />
  <rect x="44.6156" y="49.1281" width="2.70769" height="2.7077" fill="#2F363D" />
  <rect x="47.3235" y="49.1281" width="2.7077" height="2.7077" fill="#2F363D" />
  <rect x="47.3235" y="54.5437" width="2.7077" height="2.70769" fill="#2F363D" />
  <rect x="44.6156" y="46.4203" width="2.70769" height="2.70769" fill="#2F363D" />
  <rect x="41.9078" y="46.4203" width="2.7077" height="2.70769" fill="#2F363D" />
  <rect x="39.2001" y="46.4203" width="2.7077" height="2.70769" fill="#2F363D" />
  <rect x="48.2256" y="42.8105" width="2.70769" height="2.70769" fill="#2F363D" />
  <rect x="48.2256" y="40.1027" width="2.70769" height="2.7077" fill="#2F363D" />
  <rect x="48.2256" y="33.7849" width="2.70769" height="2.7077" fill="#2F363D" />
  <rect x="48.2256" y="31.0771" width="2.70769" height="2.70769" fill="#2F363D" />
  <rect x="50.9333" y="31.0771" width="2.7077" height="2.70769" fill="#2F363D" />
  <rect x="53.6412" y="31.0771" width="2.70769" height="2.70769" fill="#2F363D" />
  <rect x="56.349" y="31.0771" width="2.70769" height="2.70769" fill="#2F363D" />
  <rect x="59.0569" y="31.0771" width="2.7077" height="2.70769" fill="#2F363D" />
  <rect x="59.0569" y="36.4922" width="2.7077" height="2.7077" fill="#2F363D" />
  <rect x="59.0569" y="39.2" width="2.7077" height="2.7077" fill="#2F363D" />
  <rect x="59.0569" y="41.9078" width="2.7077" height="2.7077" fill="#2F363D" />
  <rect x="56.349" y="41.9078" width="2.70769" height="2.7077" fill="#2F363D" />
  <rect x="53.6412" y="41.9078" width="2.70769" height="2.7077" fill="#2F363D" />
  <rect x="56.349" y="44.6152" width="2.70769" height="2.7077" fill="#2F363D" />
  <rect x="53.6412" y="44.6152" width="2.70769" height="2.7077" fill="#2F363D" />
  <rect x="31.9797" y="41.9078" width="2.7077" height="2.7077" fill="#2F363D" />
  <rect x="42.8099" y="41.9078" width="2.70769" height="2.7077" fill="#2F363D" />
  <rect x="37.3943" y="41.9078" width="2.70769" height="2.7077" fill="#2F363D" />
  <rect x="37.3943" y="39.2" width="2.70769" height="2.7077" fill="#2F363D" />
  <rect x="37.3943" y="36.4922" width="2.70769" height="2.7077" fill="#2F363D" />
  <rect x="37.3943" y="33.7849" width="2.70769" height="2.7077" fill="#2F363D" />
  <rect x="37.3943" y="31.0771" width="2.70769" height="2.70769" fill="#2F363D" />
  <rect x="34.6871" y="31.0771" width="2.7077" height="2.70769" fill="#2F363D" />
  <rect x="34.6871" y="36.4922" width="2.7077" height="2.7077" fill="#2F363D" />
  <rect x="34.6871" y="44.6152" width="2.7077" height="2.7077" fill="#2F363D" />
  <rect x="18.4412" y="28.3693" width="2.70769" height="2.70769" fill="#2F363D" />
  <rect x="24.7589" y="28.3693" width="2.70769" height="2.70769" fill="#2F363D" />
  <rect x="34.6871" y="28.3693" width="2.7077" height="2.70769" fill="#2F363D" />
  <rect x="42.8099" y="28.3693" width="2.70769" height="2.70769" fill="#2F363D" />
  <rect x="42.8099" y="33.7849" width="2.70769" height="2.7077" fill="#2F363D" />
  <rect x="42.8099" y="36.4922" width="2.70769" height="2.7077" fill="#2F363D" />
  <rect x="45.5178" y="36.4922" width="2.7077" height="2.7077" fill="#2F363D" />
  <rect x="45.5178" y="41.9078" width="2.7077" height="2.7077" fill="#2F363D" />
  <rect x="47.3235" y="59.9589" width="2.7077" height="2.70769" fill="#2F363D" />
  <rect x="47.3235" y="46.4203" width="2.7077" height="2.70769" fill="#2F363D" />
  <rect x="30.1746" y="46.4203" width="2.70769" height="2.70769" fill="#2F363D" />
  <rect x="24.7589" y="46.4203" width="2.70769" height="2.70769" fill="#2F363D" />
  <rect x="24.7589" y="41.9078" width="2.70769" height="2.7077" fill="#2F363D" />
  <rect x="34.6871" y="24.7589" width="2.7077" height="2.70769" fill="#2F363D" />
  <rect x="45.5178" y="22.0516" width="2.7077" height="2.70769" fill="#2F363D" />
  <rect x="45.5178" y="20.2464" width="2.7077" height="2.70769" fill="#2F363D" />
  <rect x="51.8359" y="28.3693" width="2.70769" height="2.70769" fill="#2F363D" />
  <rect x="59.0569" y="28.3693" width="2.7077" height="2.70769" fill="#2F363D" />
  <rect x="40.1027" y="31.0771" width="2.7077" height="2.70769" fill="#2F363D" />
  <rect x="40.1027" y="33.7849" width="2.7077" height="2.7077" fill="#2F363D" />
  <rect x="40.1027" y="24.7589" width="2.7077" height="2.70769" fill="#2F363D" />
  <rect x="42.8099" y="24.7589" width="2.70769" height="2.70769" fill="#2F363D" />
  <rect x="45.5178" y="24.7589" width="2.7077" height="2.70769" fill="#2F363D" />
  <rect x="45.5178" y="18.4412" width="2.7077" height="2.70769" fill="#2F363D" />
  <rect x="45.5178" y="15.7334" width="2.7077" height="2.70769" fill="#2F363D" />
  <rect x="30.1746" y="54.5437" width="2.70769" height="2.70769" fill="#2F363D" />
  <rect x="30.1746" y="57.2516" width="2.70769" height="2.70769" fill="#2F363D" />
  <rect x="30.1746" y="49.1281" width="2.70769" height="2.7077" fill="#2F363D" />
  <rect x="27.4668" y="46.4203" width="2.70769" height="2.70769" fill="#2F363D" />
  <rect x="53.6412" y="33.7849" width="2.70769" height="2.7077" fill="#2F363D" />
  <rect x="53.6412" y="36.4922" width="2.70769" height="2.7077" fill="#2F363D" />
  <rect x="41.0059" y="15.7334" width="2.70769" height="2.70769" fill="#2F363D" />
  <rect x="41.0059" y="18.4412" width="2.70769" height="2.70769" fill="#2F363D" />
  <rect x="51.8359" y="15.7334" width="10.8308" height="10.8308" fill="#2F363D" />
  <rect x="15.7334" y="51.8359" width="10.8308" height="10.8308" fill="#2F363D" />
  <rect x="51.8359" y="51.8359" width="10.8308" height="10.8308" fill="#2F363D" />
  <rect x="19.3434" y="55.4464" width="3.61026" height="3.61026" fill="white" />
  <rect x="55.4464" y="55.4464" width="3.61026" height="3.61026" fill="white" />
  <rect x="55.4464" y="19.3438" width="3.61026" height="3.61026" fill="white" />
  <path fill-rule="evenodd" clip-rule="evenodd"
    d="M10.4 68L31.7333 68V71.2H9.33329C8.15508 71.2 7.19995 70.2449 7.19995 69.0667V48.8H10.4V31.7334H7.19995V9.33333C7.19995 8.15512 8.15508 7.2 9.33328 7.2H31.7333V10.4H48.8V7.2H69.0666C70.2448 7.2 71.1999 8.15512 71.1999 9.33333V31.7334H68L67.9999 10.4H10.4V68ZM68 48.8L67.9999 68L48.8 68V71.2H69.0666C70.2448 71.2 71.1999 70.2449 71.1999 69.0667V48.8H68Z"
    fill="#2FA7AE" />
</svg>
