<svg width="104" height="104" viewBox="0 0 104 104" fill="none" xmlns="http://www.w3.org/2000/svg">
  <mask id="mask0" mask-type="alpha" maskUnits="userSpaceOnUse" x="9" y="12" width="86" height="86">
    <circle cx="51.5333" cy="55.4664" r="42.5333" fill="#FFF8E0" />
  </mask>
  <g mask="url(#mask0)">
    <circle cx="51.9423" cy="55.934" r="42.0659" fill="#FFF8E0" />
    <path fill-rule="evenodd" clip-rule="evenodd"
      d="M95.9215 94.5611C95.8726 94.6251 95.823 94.6856 95.7733 94.7461C95.1729 95.4804 94.5447 96.1921 93.8823 96.8826C93.6588 97.1157 93.4315 97.346 93.2034 97.573C90.1103 98.8243 87.1117 99.9948 83.9019 100.205C82.4975 100.301 81.0507 100.213 79.5392 99.8682C73.8314 98.563 69.804 94.2103 64.4097 92.3068C64.0535 92.1794 63.6939 92.067 63.3263 91.9635C56.4409 90.0425 49.8862 89.3494 43.6355 85.203C39.8952 82.7223 37.0588 80.1596 35.4147 75.8874C33.103 69.9029 30.0876 62.7629 30.102 56.2361C30.1079 53.8701 30.5142 52.0394 32.9378 51.9544C35.0616 51.8834 37.7331 53.9499 39.6781 54.7231C42.5058 55.8396 45.3976 56.732 48.3359 57.3791C50.8194 57.9305 54.5261 57.6435 56.4601 59.0289C58.4684 60.4699 59.4101 63.3758 62.113 64.0767C63.7815 64.5093 63.8215 64.7433 63.0965 63.3641C62.0121 61.3018 60.198 60.1084 59.322 57.5879C58.719 55.8546 58.6168 54.0002 58.0755 52.2787C57.1421 49.3032 55.7181 47.0529 56.4155 43.6692C56.7907 41.8629 58.6571 36.9853 61.1112 38.5416C62.4497 39.387 62.6486 43.0541 62.9186 44.4447C63.6854 48.4758 65.4165 51.3026 67.5995 54.7216C69.8442 58.2451 72.0977 61.7168 75.2891 64.2931C79.0111 67.3055 82.8662 70.0935 86.2599 73.5576C89.2451 76.6022 91.2147 79.3284 91.588 83.6751C91.9791 88.2286 93.4535 91.2101 95.9215 94.5611Z"
      fill="#D7B38F" />
    <mask id="mask1" mask-type="alpha" maskUnits="userSpaceOnUse" x="30" y="38" width="68" height="63">
      <path fill-rule="evenodd" clip-rule="evenodd"
        d="M56.3927 43.6867C55.7001 47.0724 57.1213 49.3169 58.0579 52.2927C58.5973 54.0132 58.7077 55.8649 59.3081 57.5936C60.1906 60.1176 62.0007 61.3055 63.0895 63.3645C63.8115 64.7392 63.772 64.5088 62.0988 64.0831C59.3972 63.3859 58.4564 60.4822 56.4443 59.0418C54.5197 57.6574 50.8193 57.9479 48.3315 57.4045C45.3965 56.7537 42.4989 55.8631 39.6792 54.7527C37.7339 53.9931 35.061 51.9242 32.9357 51.9983C30.5171 52.0853 30.1138 53.9188 30.1096 56.2798C30.1018 62.8023 33.1183 69.9315 35.4383 75.9122C37.0895 80.1824 39.92 82.7416 43.6586 85.2095C49.9119 89.3453 56.4663 90.0332 63.3383 91.9436C66.1965 92.7427 68.6376 94.2659 71.0839 95.7987C73.7399 97.4505 76.388 99.1112 79.5539 99.8265C85.9287 101.273 91.1269 98.1623 97.064 95.9984C93.9012 91.9952 92.0256 88.8427 91.5764 83.6268C91.2003 79.29 89.2263 76.5686 86.2427 73.5253C82.8488 70.0708 78.9937 67.2891 75.2651 64.2842C72.0767 61.7126 69.8167 58.2396 67.5747 54.7272C65.3891 51.3095 63.6596 48.4858 62.883 44.4596C62.6156 43.0729 62.4131 39.4085 61.0765 38.5577C60.9516 38.4811 60.8225 38.4161 60.6901 38.366C58.4321 37.5131 56.7439 41.9785 56.3927 43.6867Z"
        fill="white" />
    </mask>
    <g mask="url(#mask1)">
      <path fill-rule="evenodd" clip-rule="evenodd"
        d="M50.2567 90.8264C51.7467 92.9973 52.9904 95.0318 55.4681 94.4952C58.2039 93.9035 61.1409 91.4356 63.4767 89.9415C66.3384 88.1068 69.1568 86.1921 71.9301 84.2051C73.7446 82.9044 76.7904 81.2693 77.3242 78.8086C78.3721 73.9949 70.8364 65.9584 68.1298 62.4498C62.334 54.951 58.6176 47.4072 58.9639 37.583C56.8561 37.5412 54.4167 44.2036 53.6456 45.7842C52.3671 48.3933 51.5875 48.8096 52.7717 51.1813C54.6291 54.9034 58.2356 59.0364 61.1824 61.8053C61.627 62.2239 63.987 63.7238 63.7199 64.3372C63.2776 65.3625 59.4159 62.4681 59.0465 62.1405C57.8354 61.0905 56.8664 59.033 55.6618 58.3988C54.7632 57.9346 52.8396 58.1852 51.845 58.0411C45.8361 57.1854 40.7205 54.32 34.9614 52.6619C28.005 50.6499 28.1428 62.4177 29.0358 67.077C29.9579 71.9191 32.5231 77.9543 36.6724 80.6696C39.1658 82.3015 41.0658 82.2485 43.4112 84.5433C45.6286 86.7157 48.0713 88.6187 50.2567 90.8264Z"
        fill="#C6996A" />
    </g>
    <mask id="mask2" mask-type="alpha" maskUnits="userSpaceOnUse" x="25" y="28" width="48" height="58">
      <path
        d="M41.5147 31.1645L30.5221 36.228C27.2992 37.7126 26.062 41.6547 27.8587 44.7149L49.0611 80.8266C50.8089 83.8035 54.7021 84.6955 57.5714 82.7765L67.5075 76.131C70.1429 74.3684 70.9518 70.8594 69.3539 68.1207L49.2081 33.5909C47.6509 30.9219 44.3212 29.8717 41.5147 31.1645Z"
        fill="#F0F2F5" stroke="#2F363D" stroke-width="4" />
    </mask>
    <g mask="url(#mask2)">
      <path
        d="M41.5147 31.1645L30.5221 36.228C27.2992 37.7126 26.062 41.6547 27.8587 44.7149L49.0611 80.8266C50.8089 83.8035 54.7021 84.6955 57.5714 82.7765L67.5075 76.131C70.1429 74.3684 70.9518 70.8594 69.3539 68.1207L49.2081 33.5909C47.6509 30.9219 44.3212 29.8717 41.5147 31.1645Z"
        fill="#F0F2F5" />
      <path fill-rule="evenodd" clip-rule="evenodd"
        d="M53.5613 46.0854C52.7145 45.4313 52.0581 50.0727 52.14 50.7044C52.4171 52.8391 53.9094 55.1641 55.1567 56.8173C57.8913 60.4327 62.2917 61.9203 66.3209 63.1018C66.3173 61.5402 66.3427 59.976 66.4025 58.4188C66.4486 57.3531 67.3653 54.3969 67.2581 53.5851C66.6255 49.04 56.5199 47.7091 53.2671 45.8628"
        fill="#DADDE0" />
      <path
        d="M41.5147 31.1645L30.5221 36.228C27.2992 37.7126 26.062 41.6547 27.8587 44.7149L49.0611 80.8266C50.8089 83.8035 54.7021 84.6955 57.5714 82.7765L67.5075 76.131C70.1429 74.3684 70.9518 70.8594 69.3539 68.1207L49.2081 33.5909C47.6509 30.9219 44.3212 29.8717 41.5147 31.1645Z"
        stroke="#2F363D" stroke-width="4" />
    </g>
    <path fill-rule="evenodd" clip-rule="evenodd"
      d="M28.4588 53.6875C26.3143 53.8627 23.8871 52.4184 24.2371 49.7367C24.5931 46.9753 29.8563 43.1039 31.7529 41.4871C36.8684 37.123 35.5679 43.9304 34.2082 47.109C32.6013 50.8574 31.618 51.8801 28.4588 53.6875Z"
      fill="#D7B38F" />
    <mask id="mask3" mask-type="alpha" maskUnits="userSpaceOnUse" x="24" y="40" width="12" height="14">
      <path fill-rule="evenodd" clip-rule="evenodd"
        d="M31.7442 41.487C29.8507 43.1046 24.603 46.9842 24.2426 49.7385C23.8927 52.4193 26.3268 53.8621 28.4698 53.6847C31.6202 51.8692 32.6024 50.8496 34.204 47.1023C35.1785 44.8188 36.1197 40.6604 34.6784 40.1207C34.1142 39.9135 33.1873 40.2547 31.7442 41.487Z"
        fill="white" />
    </mask>
    <g mask="url(#mask3)">
      <path fill-rule="evenodd" clip-rule="evenodd"
        d="M35.6059 40.7368C34.6201 47.3655 29.1953 48.4172 26.1307 53.2935C28.0094 54.0938 30.4047 53.1543 31.828 51.7307C33.2951 50.2656 36.9922 42.9438 35.6059 40.7368Z"
        fill="#C6996A" />
    </g>
    <mask id="mask4" mask-type="alpha" maskUnits="userSpaceOnUse" x="26" y="41" width="10" height="13">
      <path fill-rule="evenodd" clip-rule="evenodd"
        d="M26.1583 53.254C26.3605 53.3533 26.5693 53.4369 26.7869 53.5008C27.5144 53.6409 28.2539 53.6073 28.9569 53.4033C31.7256 51.7554 32.6927 50.65 34.2058 47.1036C34.85 45.5969 35.4765 43.2705 35.4154 41.7116C34.0724 47.4637 29.0757 48.6619 26.1583 53.254Z"
        fill="white" />
    </mask>
    <g mask="url(#mask4)">
      <path fill-rule="evenodd" clip-rule="evenodd"
        d="M35.6071 40.7367C34.6213 47.3654 29.1996 48.4164 26.1319 53.2933C28.0106 54.0937 30.4059 53.1542 31.8292 51.7306C33.2963 50.2655 36.9933 42.9437 35.6071 40.7367Z"
        fill="#C6996A" />
    </g>
    <mask id="mask5" mask-type="alpha" maskUnits="userSpaceOnUse" x="26" y="41" width="10" height="13">
      <path fill-rule="evenodd" clip-rule="evenodd"
        d="M26.1593 53.2538C26.3616 53.3531 26.572 53.4293 26.7879 53.5007C27.1082 53.5675 27.4425 53.5922 27.7757 53.5814C27.7866 53.5862 27.796 53.5842 27.8016 53.5795C28.1929 53.5634 28.5779 53.5024 28.9548 53.4038C31.7298 51.7545 32.6937 50.6498 34.2068 47.1035C34.8471 45.594 35.4765 43.2812 35.414 41.7155C34.0717 47.471 29.0704 48.6631 26.1593 53.2538Z"
        fill="white" />
    </mask>
    <g mask="url(#mask5)">
      <path fill-rule="evenodd" clip-rule="evenodd"
        d="M35.6069 40.7369C34.6212 47.3656 29.1995 48.4166 26.1318 53.2935C28.0104 54.0939 30.4058 53.1544 31.8291 51.7308C33.2962 50.2657 36.9932 42.9439 35.6069 40.7369Z"
        fill="#C6996A" />
    </g>
    <path fill-rule="evenodd" clip-rule="evenodd"
      d="M27.8235 60.4073C25.0312 59.7522 23.9791 56.4441 25.4683 53.9264C26.7716 51.7266 29.7236 50.8565 31.7225 49.6218C32.9619 48.8554 35.6462 45.9518 37.1292 45.8363C40.5061 45.5716 39.5287 48.9329 38.278 51.0396C36.7648 53.5837 34.3853 57.5499 31.9195 59.1585C30.8325 59.8676 29.0394 60.0418 27.8235 60.4073Z"
      fill="#D7B38F" />
    <mask id="mask6" mask-type="alpha" maskUnits="userSpaceOnUse" x="24" y="45" width="16" height="16">
      <path fill-rule="evenodd" clip-rule="evenodd"
        d="M37.1175 45.8507C35.6375 45.9606 32.9554 48.8727 31.7169 49.6331C29.7209 50.8657 26.7773 51.745 25.4748 53.9413C23.9966 56.4532 25.051 59.7598 27.8383 60.4074C29.0558 60.04 30.8511 59.8662 31.9297 59.1578C34.3955 57.5538 36.7696 53.5885 38.2734 51.0426C39.3167 49.2796 40.1708 46.6339 38.4323 45.9829C38.0918 45.8526 37.663 45.8017 37.1175 45.8507Z"
        fill="white" />
    </mask>
    <g mask="url(#mask6)">
      <path fill-rule="evenodd" clip-rule="evenodd"
        d="M39.3605 46.6741C38.3399 50.7991 34.9865 53.8179 31.3538 55.1137C29.7938 55.6678 21.6723 58.4423 27.3204 60.2169C29.5945 60.9257 32.2632 58.8303 33.6269 57.2345C35.0586 55.5564 41.2014 49.4361 39.3605 46.6741Z"
        fill="#CB8A8A" />
    </g>
    <path fill-rule="evenodd" clip-rule="evenodd"
      d="M36.5136 78.6478C32.3514 75.4688 22.323 65.4541 25.6716 59.2548C27.3192 56.2072 36.7044 52.9336 39.6878 55.4293C43.3405 58.5029 33.9744 63.1635 32.1115 64.1348C34.9658 64.8354 47.8772 60.4893 46.6053 65.7324C45.651 69.6703 39.9615 69.2849 37.543 71.4019C35.602 73.1031 36.0721 76.1738 36.5136 78.6478Z"
      fill="#D7B38F" />
  </g>
  <path
    d="M40 4V28V34.4689C40 36.5198 42.7189 37.2419 43.7365 35.4611L46.8483 30.0154C47.5605 28.7691 48.8859 28 50.3213 28H80C82.2091 28 84 26.2091 84 24V4C84 1.79086 82.2091 0 80 0H44C41.7909 0 40 1.79086 40 4Z"
    fill="#25D366" />
  <rect x="48" y="8" width="28" height="4" rx="2" fill="white" />
  <rect x="48" y="16" width="16" height="4" rx="2" fill="white" />
</svg>
